# File created by Blade
# Date/Time:  Fri Jan 16 17:18:57 2015
#---------------------------------------------------------
:version 1.10
:name HOM
:units
  mass 1.0
  length 1.000000
  angle deg
:documentation
     Acclaim Skeleton File
:root
   axis xyz
   order TX TY TZ RX RY RZ
   position 0.000000 0.000000 0.000000
   orientation 0 0 0
:bonedata
   begin
      id 1
      name Spine_dum
      direction 0.000000 1.000000 0.000000
      length 7.170412
      axis 0.0 0.0 0.0 xyz
   end
   begin
      id 2
      name LeftUpLeg_dum
      direction 1.000000 0.000000 0.000000
      length 4.318350
      axis 0.0 0.0 0.0 xyz
   end
   begin
      id 3
      name RightUpLeg_dum
      direction -1.000000 0.000000 0.000000
      length 4.318350
      axis 0.0 0.0 0.0 xyz
   end
   begin
      id 4
      name Spine
      direction 0.000000 1.000000 0.000000
      length 0.000000
      axis 0.0 0.0 0.0 xyz
      dof rx ry rz
   end
   begin
      id 5
      name Spine_dum1
      direction 0.000000 1.000000 0.000000
      length 14.276153
      axis 0.0 0.0 0.0 xyz
   end
   begin
      id 6
      name Spine_dum2
      direction 0.000000 1.000000 0.000000
      length 10.718243
      axis 0.0 0.0 0.0 xyz
   end
   begin
      id 7
      name Spine_dum3
      direction 0.000000 1.000000 0.000000
      length 10.718243
      axis 0.0 0.0 0.0 xyz
   end
   begin
      id 8
      name Head
      direction 0.000000 1.000000 0.000000
      length 4.527550
      axis 0.0 0.0 0.0 xyz
      dof rx ry rz
   end
   begin
      id 9
      name LeftShoulder
      direction 1.000000 0.000000 0.000000
      length 7.058872
      axis 0.0 0.0 -90.0 xyz
      dof rx ry rz
   end
   begin
      id 10
      name LeftArm
      direction 1.000000 0.000000 0.000000
      length 10.955525
      axis 0.0 0.0 -90.0 xyz
      dof rx ry rz
   end
   begin
      id 11
      name LeftForeArm
      direction 1.000000 0.000000 0.000000
      length 8.193716
      axis 0.0 0.0 -90.0 xyz
      dof ry rz rx
   end
   begin
      id 12
      name LeftHand
      direction 0.000000 0.000000 0.000000
      length 0.000000
      axis 0.0 0.0 -90.0 xyz
      dof rx ry rz
   end
   begin
      id 13
      name LeftHand_dum1
      direction 0.000000 0.000000 0.000000
      length 0.000000
      axis 0.0 0.0 -90.0 xyz
   end
   begin
      id 14
      name LeftHand_dum2
      direction 1.000000 0.000000 0.000000
      length 3.937000
      axis 0.0 0.0 -90.0 xyz
   end
   begin
      id 15
      name LeftHandThumb1
      direction 0.000000 0.000000 1.000000
      length 3.937000
      axis 0.0 0.0 -90.0 xyz
      dof rx rz ry
   end
   begin
      id 16
      name RightShoulder
      direction -1.000000 0.000000 0.000000
      length 7.058872
      axis 0.0 0.0 90.0 xyz
      dof rx ry rz
   end
   begin
      id 17
      name RightArm
      direction -1.000000 0.000000 0.000000
      length 10.955525
      axis 0.0 0.0 90.0 xyz
      dof rx ry rz
   end
   begin
      id 18
      name RightForeArm
      direction -1.000000 0.000000 0.000000
      length 8.193716
      axis 0.0 0.0 90.0 xyz
      dof ry rz rx
   end
   begin
      id 19
      name RightHand
      direction 0.000000 0.000000 0.000000
      length 0.000000
      axis 0.0 0.0 90.0 xyz
      dof rx ry rz
   end
   begin
      id 20
      name RightHand_dum1
      direction 0.000000 0.000000 0.000000
      length 0.000000
      axis 0.0 0.0 90.0 xyz
   end
   begin
      id 21
      name RightHand_dum2
      direction -1.000000 0.000000 0.000000
      length 3.937000
      axis 0.0 0.0 90.0 xyz
   end
   begin
      id 22
      name RightHandThumb1
      direction 0.000000 0.000000 1.000000
      length 3.937000
      axis 0.0 0.0 90.0 xyz
      dof rx rz ry
   end
   begin
      id 23
      name LeftUpLeg
      direction 0.000000 -1.000000 0.000000
      length 17.323638
      axis 0.0 0.0 0.0 xyz
      dof rx ry rz
   end
   begin
      id 24
      name LeftLeg
      direction 0.000000 -1.000000 0.000000
      length 16.270368
      axis 0.0 0.0 0.0 xyz
      dof rx ry rz
   end
   begin
      id 25
      name LeftFoot
      direction 0.000000 -0.258819 0.965926
      length 4.922846
      axis 15.0 0.0 0.0 xyz
      dof rx ry rz
   end
   begin
      id 26
      name LeftToeBase
      direction 0.000000 0.000000 1.000000
      length 2.952750
      axis 0.0 0.0 0.0 xyz
      dof rx ry rz
   end
   begin
      id 27
      name RightUpLeg
      direction 0.000000 -1.000000 0.000000
      length 17.323638
      axis 0.0 0.0 0.0 xyz
      dof rx ry rz
   end
   begin
      id 28
      name RightLeg
      direction 0.000000 -1.000000 0.000000
      length 16.270368
      axis 0.0 0.0 0.0 xyz
      dof rx ry rz
   end
   begin
      id 29
      name RightFoot
      direction 0.000000 -0.258819 0.965926
      length 4.922846
      axis 15.0 0.0 0.0 xyz
      dof rx ry rz
   end
   begin
      id 30
      name RightToeBase
      direction 0.000000 0.000000 1.000000
      length 2.952750
      axis 0.0 0.0 0.0 xyz
      dof rx ry rz
   end
:hierarchy
   begin
      root Spine_dum LeftUpLeg_dum RightUpLeg_dum
      Spine_dum Spine
      LeftUpLeg_dum LeftUpLeg
      RightUpLeg_dum RightUpLeg
      Spine Spine_dum1 Spine_dum2 Spine_dum3
      Spine_dum1 Head
      Spine_dum2 LeftShoulder
      Spine_dum3 RightShoulder
      LeftShoulder LeftArm
      LeftArm LeftForeArm
      LeftForeArm LeftHand
      LeftHand LeftHand_dum1 LeftHand_dum2
      LeftHand_dum1 LeftHandThumb1
      RightShoulder RightArm
      RightArm RightForeArm
      RightForeArm RightHand
      RightHand RightHand_dum1 RightHand_dum2
      RightHand_dum1 RightHandThumb1
      LeftUpLeg LeftLeg
      LeftLeg LeftFoot
      LeftFoot LeftToeBase
      RightUpLeg RightLeg
      RightLeg RightFoot
      RightFoot RightToeBase
   end

# File created by Blade
# Date/Time:  Fri Jan 16 17:19:08 2015
# Frame Rate: 120.000 fps
#------------------------------------------------------
:FULLY-SPECIFIED
:DEGREES
2313
root -5.298976 35.171027 -9.206815 0.427753 -6.290585 -6.578724
Spine -4.159617 -3.570943 8.414957
Head 6.604980 -3.831030 -6.917578
LeftShoulder -20.232182 13.544571 -14.792618
LeftArm 19.475827 -7.965865 -73.377419
LeftForeArm 14.278287 0.000000 9.704832
LeftHand 0.217842 -0.000000 -5.458589
LeftHandThumb1 -26.253704 0.000000 33.147579
RightShoulder -9.722593 9.076288 -9.707118
RightArm -50.186656 63.661555 7.318663
RightForeArm 47.604631 -0.000000 42.083984
RightHand 6.067575 -0.000000 -26.715403
RightHandThumb1 -24.326973 -0.000000 -32.862282
LeftUpLeg 11.317067 14.476150 7.220753
LeftLeg -9.474593 -0.000000 0.000000
LeftFoot -16.903897 28.840608 -8.151977
LeftToeBase 22.981597 -0.000000 -0.000000
RightUpLeg 7.578545 -3.487805 4.638067
RightLeg -4.977933 -0.000000 0.000000
RightFoot -4.847080 -27.950010 4.542506
RightToeBase 13.453594 -0.000000 -0.000000
2314
root -5.297745 35.170640 -9.207823 0.426811 -6.236221 -6.573625
Spine -4.178399 -3.635945 8.421046
Head 6.636550 -3.821576 -6.899236
LeftShoulder -20.240659 13.552410 -14.789946
LeftArm 19.460619 -7.981717 -73.365415
LeftForeArm 14.309877 -0.000000 9.734055
LeftHand 0.216786 -0.000000 -5.451397
LeftHandThumb1 -26.253704 0.000000 33.147579
RightShoulder -9.853490 9.031139 -9.681103
RightArm -51.025924 64.172925 6.347774
RightForeArm 47.738610 0.000000 44.119433
RightHand 6.415823 -0.000000 -26.436432
RightHandThumb1 -24.326973 -0.000000 -32.862282
LeftUpLeg 11.297749 14.436750 7.212060
LeftLeg -9.469501 -0.000000 0.000000
LeftFoot -16.903291 28.838267 -8.138628
LeftToeBase 22.947108 -0.000000 -0.000000
RightUpLeg 7.576195 -3.493621 4.636138
RightLeg -4.967821 -0.000000 0.000000
RightFoot -4.862233 -27.986696 4.528719
RightToeBase 13.439955 -0.000000 -0.000000
2315
root -5.297146 35.170309 -9.208444 0.421038 -6.182795 -6.566631
Spine -4.193916 -3.700434 8.424769
Head 6.666062 -3.809553 -6.886764
LeftShoulder -20.230006 13.571839 -14.787553
LeftArm 19.447194 -8.012826 -73.351340
LeftForeArm 14.335165 -0.000000 9.755802
LeftHand 0.235347 -0.000000 -5.478632
LeftHandThumb1 -26.253704 0.000000 33.147579
RightShoulder -9.970696 8.941460 -9.604632
RightArm -51.777387 64.565112 5.469730
RightForeArm 48.024662 -0.000000 46.260400
RightHand 6.786595 -0.000000 -25.878961
RightHandThumb1 -24.326973 -0.000000 -32.862282
LeftUpLeg 11.290239 14.410955 7.205736
LeftLeg -9.472157 -0.000000 0.000000
LeftFoot -16.885569 28.809624 -8.109454
LeftToeBase 22.981533 -0.000000 -0.000000
RightUpLeg 7.579831 -3.508546 4.632022
RightLeg -4.961326 -0.000000 0.000000
RightFoot -4.876740 -28.009917 4.535978
RightToeBase 13.447887 -0.000000 -0.000000
2316
root -5.296738 35.170571 -9.209277 0.416904 -6.117273 -6.556816
Spine -4.209066 -3.783215 8.418820
Head 6.694737 -3.813360 -6.859567
LeftShoulder -20.232900 13.576605 -14.784153
LeftArm 19.423557 -8.003923 -73.316080
LeftForeArm 14.303999 -0.000000 9.789480
LeftHand 0.251462 -0.000000 -5.528682
LeftHandThumb1 -26.253704 0.000000 33.147579
RightShoulder -10.083555 8.914904 -9.593785
RightArm -52.554121 64.988019 4.609509
RightForeArm 47.914807 -0.000000 48.372565
RightHand 7.115233 -0.000000 -25.488136
RightHandThumb1 -24.326973 -0.000000 -32.862282
LeftUpLeg 11.267152 14.357928 7.192886
LeftLeg -9.456820 -0.000000 0.000000
LeftFoot -16.882937 28.799187 -8.111716
LeftToeBase 22.981951 -0.000000 -0.000000
RightUpLeg 7.583475 -3.525477 4.625308
RightLeg -4.956849 -0.000000 0.000000
RightFoot -4.892466 -28.054176 4.561725
RightToeBase 13.442823 -0.000000 -0.000000
2317
root -5.296730 35.170627 -9.209192 0.405776 -6.061399 -6.546188
Spine -4.219300 -3.872332 8.418320
Head 6.727946 -3.794073 -6.849034
LeftShoulder -20.232428 13.615604 -14.792727
LeftArm 19.425593 -8.027137 -73.293202
LeftForeArm 14.251863 -0.000000 9.806213
LeftHand 0.284812 -0.000000 -5.520764
LeftHandThumb1 -26.253704 0.000000 33.147579
RightShoulder -10.188623 8.856866 -9.560466
RightArm -53.152258 65.397508 3.891786
RightForeArm 47.853758 -0.000000 50.547696
RightHand 7.166796 -0.000000 -25.844752
RightHandThumb1 -24.326973 -0.000000 -32.862282
LeftUpLeg 11.259955 14.324553 7.183620
LeftLeg -9.451491 -0.000000 0.000000
LeftFoot -16.873506 28.785314 -8.106027
LeftToeBase 22.980739 -0.000000 -0.000000
RightUpLeg 7.593945 -3.551078 4.617058
RightLeg -4.950355 -0.000000 0.000000
RightFoot -4.914137 -28.075595 4.557197
RightToeBase 13.484780 -0.000000 -0.000000
2318
root -5.296250 35.170925 -9.209252 0.394503 -6.011542 -6.537755
Spine -4.228457 -3.960495 8.427958
Head 6.760565 -3.775650 -6.868455
LeftShoulder -20.242844 13.635282 -14.811363
LeftArm 19.424786 -8.062466 -73.265736
LeftForeArm 14.227902 0.000000 9.813361
LeftHand 0.284246 -0.000000 -5.583052
LeftHandThumb1 -26.253704 0.000000 33.147579
RightShoulder -10.294058 8.766968 -9.536272
RightArm -53.693468 65.822677 3.249405
RightForeArm 47.701547 -0.000000 52.744784
RightHand 7.839542 -0.000000 -25.879193
RightHandThumb1 -24.326973 -0.000000 -32.862282
LeftUpLeg 11.258386 14.284062 7.174639
LeftLeg -9.453099 -0.000000 0.000000
LeftFoot -16.867653 28.775944 -8.119156
LeftToeBase 22.951694 -0.000000 -0.000000
RightUpLeg 7.603145 -3.561549 4.610378
RightLeg -4.942013 -0.000000 0.000000
RightFoot -4.925500 -28.105796 4.570730
RightToeBase 13.456914 -0.000000 -0.000000
2319
root -5.296084 35.171021 -9.209281 0.384580 -5.957973 -6.527121
Spine -4.242340 -4.057763 8.437786
Head 6.798658 -3.741540 -6.889336
LeftShoulder -20.250071 13.643217 -14.821896
LeftArm 19.410586 -8.119173 -73.244616
LeftForeArm 14.227088 -0.000000 9.815469
LeftHand 0.270942 0.000000 -5.576847
LeftHandThumb1 -26.253704 0.000000 33.147579
RightShoulder -10.411850 8.691546 -9.519023
RightArm -54.251661 66.241348 2.552841
RightForeArm 47.646423 -0.000000 54.921593
RightHand 7.532089 -0.000000 -25.624494
RightHandThumb1 -24.326973 -0.000000 -32.862282
LeftUpLeg 11.252706 14.272336 7.167773
LeftLeg -9.452862 -0.000000 0.000000
LeftFoot -16.857353 28.742626 -8.101118
LeftToeBase 22.968828 -0.000000 -0.000000
RightUpLeg 7.610934 -3.588361 4.602057
RightLeg -4.932955 -0.000000 0.000000
RightFoot -4.943001 -28.123636 4.585074
RightToeBase 13.458481 -0.000000 -0.000000
2320
root -5.297358 35.171042 -9.209543 0.372903 -5.917687 -6.520677
Spine -4.248821 -4.153358 8.435066
Head 6.847380 -3.780973 -6.928773
LeftShoulder -20.274120 13.652859 -14.820719
LeftArm 19.407400 -8.126714 -73.215992
LeftForeArm 14.182271 -0.000000 9.800802
LeftHand 0.269782 -0.000000 -5.564330
LeftHandThumb1 -26.253704 0.000000 33.147579
RightShoulder -10.518977 8.608071 -9.498617
RightArm -54.819596 66.684494 1.863310
RightForeArm 47.553431 -0.000000 57.140433
RightHand 7.451093 -0.000000 -25.189171
RightHandThumb1 -24.326973 -0.000000 -32.862282
LeftUpLeg 11.260450 14.259732 7.167796
LeftLeg -9.466587 -0.000000 0.000000
LeftFoot -16.827646 28.716369 -8.092907
LeftToeBase 22.952496 -0.000000 -0.000000
RightUpLeg 7.621887 -3.599636 4.601233
RightLeg -4.929737 -0.000000 0.000000
RightFoot -4.957795 -28.163562 4.595814
RightToeBase 13.437347 -0.000000 -0.000000
2321
root -5.297913 35.171167 -9.209721 0.345316 -5.872099 -6.514584
Spine -4.242636 -4.245644 8.455712
Head 6.888936 -3.701916 -6.942051
LeftShoulder -20.264079 13.673329 -14.847102
LeftArm 19.400617 -8.165497 -73.178821
LeftForeArm 14.174720 -0.000000 9.800715
LeftHand 0.251778 -0.000000 -5.491296
LeftHandThumb1 -26.253704 0.000000 33.147579
RightShoulder -10.618395 8.568415 -9.535571
RightArm -55.253373 67.009072 1.383525
RightForeArm 47.755657 0.000000 59.504718
RightHand 7.619326 -0.000000 -25.211693
RightHandThumb1 -24.326973 -0.000000 -32.862282
LeftUpLeg 11.277162 14.229711 7.168817
LeftLeg -9.469006 -0.000000 0.000000
LeftFoot -16.817496 28.702154 -8.098612
LeftToeBase 22.939778 -0.000000 -0.000000
RightUpLeg 7.650812 -3.603967 4.598145
RightLeg -4.928149 -0.000000 0.000000
RightFoot -4.974232 -28.194299 4.604621
RightToeBase 13.477819 -0.000000 -0.000000
